REM MD5 1ac6c37e5a605f48942f64a4e25985cf
FILE "Hugo (Italy).bin" BINARY
  TRACK 01 MODE2/2352
    INDEX 01 00:00:00
  TRACK 02 AUDIO
    INDEX 00 24:20:02
    INDEX 01 24:22:02
  TRACK 03 AUDIO
    INDEX 00 26:31:31
    INDEX 01 26:33:31
  TRACK 04 AUDIO
    INDEX 00 28:12:04
    INDEX 01 28:14:04
  TRACK 05 AUDIO
    INDEX 00 29:26:27
    INDEX 01 29:28:27
REM LEADOUT 32:28:28
